<svg width="20" height="19" viewBox="0 0 20 19" fill="none" xmlns="http://www.w3.org/2000/svg">
<path d="M9.25 0.25V1.75H6.25V4H3.25V8.4295L2.617 8.5705V8.59375C1.264 8.88625 0.59275 10.4537 1.3045 11.641L2.5 13.6562V17.383C2.13434 17.2803 1.78655 17.1222 1.46875 16.9142L0.53125 18.0858C0.53125 18.0858 1.6885 19 3.27325 19C4.369 19 5.06575 18.637 5.5 18.367C5.9365 18.634 6.66925 19 7.77325 19C8.869 19 9.56575 18.637 10 18.367C10.4365 18.634 11.1693 19 12.2733 19C13.369 19 14.0658 18.637 14.5 18.367C14.9365 18.634 15.6693 19 16.7733 19C18.3587 19 19.4688 18.0858 19.4688 18.0858L18.5312 16.9142C18.5312 16.9142 18.124 17.239 17.5 17.4062V13.6562L18.6955 11.6403C19.4072 10.4538 18.736 8.887 17.383 8.59375L16.75 8.45275V4H13.75V1.75H10.75V0.25H9.25ZM7.75 3.25H12.25V5.5H15.25V8.125L10.1642 7.02325L10 7L9.83575 7.02325L4.75 8.125V5.5H7.75V3.25ZM10 8.54725L17.0545 10.0472C17.4475 10.132 17.638 10.5243 17.4295 10.867L16.117 13.0705L16 13.234V17.383C15.6343 17.2803 15.2866 17.1222 14.9688 16.9142L14.5 16.5392L14.0312 16.9142C14.0312 16.9142 13.2782 17.5 12.2733 17.5C11.2683 17.5 10.4688 16.9142 10.4688 16.9142L10 16.5392L9.53125 16.9142C9.53125 16.9142 8.77825 17.5 7.77325 17.5C6.76825 17.5 5.96875 16.9142 5.96875 16.9142L5.5 16.5392L5.03125 16.9142C5.03125 16.9142 4.624 17.239 4 17.4062V13.234L3.883 13.0705L2.5705 10.867C2.362 10.522 2.5525 10.132 2.9455 10.0472L10 8.54725ZM6.25 10C5.7985 10 5.5 10.525 5.5 11.125C5.5 11.725 5.7985 12.25 6.25 12.25C6.7015 12.25 7 11.725 7 11.125C7 10.525 6.7015 10 6.25 10ZM13.75 10C13.2985 10 13 10.525 13 11.125C13 11.725 13.2985 12.25 13.75 12.25C14.2015 12.25 14.5 11.725 14.5 11.125C14.5 10.525 14.2015 10 13.75 10Z" fill="#1261BF"/>
</svg>
